# xmcd
#
# Track frame offsets: 
#        150
#        21982
#        38825
#        61775
#        94117
#        116232
#        142707
#        164802
#        181727
#        202020
#        227072
#        246985
#        264395
#
# Disc length: 3758 seconds
#
# Revision: 3
# Processed by: cddbd v1.5.2PL0 Copyright (c) Steve Scherf et al.
# Submitted via: ExactAudioCopy v1.0b3
#
DISCID=b30eac0d
DTITLE=DESPERADO - Bloodied, But Unbowed
DYEAR=1996
DGENRE=Hard Rock
TTITLE0=Hang 'Em High
TTITLE1=Gone Bad
TTITLE2=The Maverick
TTITLE3=The Heart Is A Lonely Hunter
TTITLE4=Calling For You
TTITLE5=See You At Sunrise
TTITLE6=There's No Angels Here
TTITLE7=Made For Trouble
TTITLE8=Ride Thru The Storm
TTITLE9=Son Of A Gun
TTITLE10=Emaheeval
TTITLE11=Easy Action
TTITLE12=Heart Of Saturday Night
EXTD=YEAR: 1996
EXTT0=
EXTT1=
EXTT2=
EXTT3=
EXTT4=
EXTT5=
EXTT6=
EXTT7=
EXTT8=
EXTT9=
EXTT10=
EXTT11=
EXTT12=
PLAYORDER=
